<svg width="36" height="36" viewBox="0 0 36 36" fill="none" xmlns="http://www.w3.org/2000/svg">
<path d="M6.25003 11.5001L12 13.1601L18.32 8.57007L9.25003 8.83007C9.16122 8.83492 9.07515 8.86246 9.00003 8.91007L6.13003 10.5601C6.04075 10.6095 5.96837 10.6846 5.92224 10.7757C5.87612 10.8667 5.85837 10.9695 5.87129 11.0708C5.88422 11.172 5.92722 11.267 5.99474 11.3436C6.06226 11.4201 6.15119 11.4746 6.25003 11.5001V11.5001Z" fill="#BABABA"/>
<path d="M34.5198 6.36011L28.2198 5.00011C27.69 4.88508 27.1416 4.88538 26.6119 5.00099C26.0822 5.11659 25.5835 5.34479 25.1498 5.67011L6.1198 19.5001L1.5498 19.3001C1.28803 19.2912 1.03009 19.3648 0.812378 19.5104C0.59467 19.656 0.428203 19.8663 0.33648 20.1116C0.244757 20.357 0.232414 20.6249 0.301194 20.8776C0.369973 21.1304 0.516399 21.3551 0.719797 21.5201L5.1698 25.0501C5.24306 25.1092 5.33026 25.1485 5.42305 25.1643C5.51585 25.18 5.61114 25.1717 5.6998 25.1401C6.9698 24.6501 11.6998 22.1401 17.2898 19.0701L18.4098 30.5801C18.4193 30.6798 18.4558 30.775 18.5155 30.8554C18.5751 30.9359 18.6556 30.9985 18.7482 31.0366C18.8408 31.0747 18.9421 31.0867 19.041 31.0715C19.14 31.0563 19.2329 31.0143 19.3098 30.9501L21.8098 28.8701C21.9467 28.7553 22.0387 28.596 22.0698 28.4201L24.4398 15.1301C28.4398 12.9101 32.2598 10.7601 34.9498 9.24011C35.229 9.08821 35.4547 8.85416 35.5964 8.56969C35.7381 8.28522 35.7889 7.96406 35.742 7.64973C35.695 7.33541 35.5526 7.0431 35.334 6.81243C35.1154 6.58175 34.8312 6.42384 34.5198 6.36011V6.36011Z" fill="#BABABA"/>
</svg>
