<svg width="36" height="36" viewBox="0 0 36 36" fill="none" xmlns="http://www.w3.org/2000/svg">
<g clip-path="url(#clip0_302_23)">
<path d="M35.3082 25.4735C33.7557 24.0138 30.8508 21.818 30.8508 14.625C30.8508 9.16172 26.4729 4.78828 20.5699 3.71531V2.25C20.5699 1.00758 19.4192 0 18 0C16.5809 0 15.4302 1.00758 15.4302 2.25V3.71531C9.52719 4.78828 5.14934 9.16172 5.14934 14.625C5.14934 21.818 2.24443 24.0138 0.69193 25.4735C0.209788 25.927 -0.0039623 26.4691 5.5558e-05 27C0.00889484 28.1531 1.04309 29.25 2.57952 29.25H33.4206C34.957 29.25 35.992 28.1531 36 27C36.0041 26.4691 35.7903 25.9263 35.3082 25.4735V25.4735ZM5.42657 25.875C7.13175 23.9084 8.99603 20.6487 9.00487 14.6658C9.00487 14.6517 9.00005 14.6391 9.00005 14.625C9.00005 10.2755 13.0292 6.75 18 6.75C22.9709 6.75 27 10.2755 27 14.625C27 14.6391 26.9952 14.6517 26.9952 14.6658C27.0041 20.6494 28.8683 23.9091 30.5735 25.875H5.42657ZM18 36C20.8383 36 23.1405 33.9855 23.1405 31.5H12.8596C12.8596 33.9855 15.1618 36 18 36Z" fill="#BABABA"/>
</g>
<defs>
<clipPath id="clip0_302_23">
<rect width="36" height="36" fill="white"/>
</clipPath>
</defs>
</svg>
