<svg width="36" height="36" viewBox="0 0 36 36" fill="none" xmlns="http://www.w3.org/2000/svg">
<path d="M18 4.4C21.9809 4.4 25.5518 6.134 28.0462 8.854L23.9799 12.9H34.2312V2.7L30.4724 6.44C27.3628 3.108 22.9377 1 18 1C9.13266 1 1.85427 7.715 1 16.3H4.45126C5.28844 9.602 11.0462 4.4 18 4.4ZM18 35C26.8673 35 34.1457 28.285 35 19.7H31.5487C30.7116 26.398 24.9538 31.6 18 31.6C14.0191 31.6 10.4482 29.866 7.95377 27.146L12.0201 23.1L1.76885 23.1V33.3L5.52764 29.56C8.63719 32.892 13.0623 35 18 35Z" fill="#DC5D5D"/>
</svg>
