<svg width="36" height="36" viewBox="0 0 36 36" fill="none" xmlns="http://www.w3.org/2000/svg">
<path d="M24.2405 16.2378C26.0688 15.1212 27.5839 13.5353 28.6373 11.6355C29.6908 9.73572 30.2465 7.58708 30.25 5.4V3.6H32V0H4V3.6H5.75V5.4C5.75355 7.58708 6.30925 9.73572 7.36268 11.6355C8.41612 13.5353 9.93117 15.1212 11.7595 16.2378C12.379 16.6122 12.75 17.2188 12.75 17.8578V18.1422C12.75 18.7794 12.379 19.3842 11.7595 19.7622C9.93117 20.8788 8.41612 22.4647 7.36268 24.3645C6.30925 26.2643 5.75355 28.4129 5.75 30.6V32.4H4V36H32V32.4H30.25V30.6C30.2467 28.4133 29.6912 26.265 28.6381 24.3655C27.585 22.466 26.0702 20.8804 24.2423 19.764C23.621 19.386 23.25 18.7794 23.25 18.1422V17.8578C23.25 17.2188 23.621 16.6122 24.2405 16.2378ZM26.75 30.6V32.4H9.25V30.6C9.25229 29.0388 9.64861 27.5049 10.4002 26.1485C11.1517 24.7921 12.2328 23.6596 13.5375 22.8618C14.6794 22.1774 15.5402 21.0891 15.9595 19.8H20.0405C20.443 21.0438 21.2725 22.14 22.4642 22.8636C23.7687 23.6612 24.8494 24.7934 25.6006 26.1495C26.3519 27.5057 26.7479 29.0392 26.75 30.6V30.6Z" fill="#DC5D5D"/>
</svg>
