<svg width="36" height="36" viewBox="0 0 36 36" fill="none" xmlns="http://www.w3.org/2000/svg">
<path d="M8.9676 30.197C9.63597 30.1973 10.2769 30.4505 10.7493 30.901C11.2218 31.3515 11.4871 31.9624 11.4869 32.5993C11.4866 33.2362 11.2209 33.847 10.7481 34.2972C10.2754 34.7474 9.63429 35.0002 8.96592 35C8.29754 34.9998 7.65663 34.7466 7.18418 34.2961C6.71172 33.8455 6.44643 33.2346 6.44665 32.5977C6.44687 31.9608 6.7126 31.3501 7.18537 30.8999C7.65814 30.4496 8.29922 30.1968 8.9676 30.197V30.197ZM30.8012 30.197C31.4696 30.1973 32.1105 30.4505 32.583 30.901C33.0554 31.3515 33.3207 31.9624 33.3205 32.5993C33.3203 33.2362 33.0545 33.847 32.5818 34.2972C32.109 34.7474 31.4679 35.0002 30.7995 35C30.1312 34.9998 29.4903 34.7466 29.0178 34.2961C28.5454 33.8455 28.2801 33.2346 28.2803 32.5977C28.2805 31.9608 28.5462 31.3501 29.019 30.8999C29.4918 30.4496 30.1329 30.1968 30.8012 30.197ZM3.37819 1L9.80567 7.12653V25.3957H33.3205V28.5966H8.12784C7.68241 28.5966 7.25522 28.428 6.94025 28.1278C6.62528 27.8277 6.44833 27.4206 6.44833 26.9961V8.4517L1 3.26464L3.37651 1H3.37819ZM26.6025 2.98936C27.0479 2.98936 27.4751 3.15798 27.79 3.45812C28.105 3.75827 28.282 4.16535 28.282 4.58981V7.79072H33.3087C34.2442 7.79072 35 8.52052 35 9.38317V22.2028C34.9989 22.4132 34.9543 22.6214 34.8686 22.8154C34.783 23.0094 34.6581 23.1854 34.501 23.3333C34.3439 23.4812 34.1577 23.5981 33.9531 23.6774C33.7485 23.7567 33.5296 23.7967 33.3087 23.7952H13.1781C12.733 23.7953 12.3059 23.6281 11.9893 23.33C11.6727 23.0319 11.4922 22.6269 11.4869 22.2028V9.38317C11.488 9.17272 11.5326 8.96455 11.6182 8.77056C11.7039 8.57658 11.8288 8.40059 11.9859 8.25268C12.143 8.10476 12.3292 7.98782 12.5337 7.90855C12.7383 7.82929 12.9573 7.78924 13.1781 7.79072H18.2032L18.2049 4.58981C18.2049 4.16535 18.3818 3.75827 18.6968 3.45812C19.0118 3.15798 19.439 2.98936 19.8844 2.98936H26.6025ZM16.5254 10.9916H14.8459V20.5943H16.5254V10.9916ZM26.6025 10.9916H19.8844V20.5943H26.6025V10.9916ZM31.641 10.9916H29.9615V20.5943H31.641V10.9916ZM24.9229 6.19027H21.5639V7.79072H24.9229V6.19027Z" fill="#DC5D5D"/>
</svg>
