<svg width="36" height="36" viewBox="0 0 36 36" fill="none" xmlns="http://www.w3.org/2000/svg">
<g clip-path="url(#clip0_303_31)">
<path d="M13.5 0.625439C13.7196 0.892317 13.8542 1.21893 13.8863 1.56307C13.9184 1.9072 13.8465 2.25306 13.68 2.55594C12.3792 4.94426 11.6999 7.62135 11.7045 10.3409C11.7045 19.3882 19.08 26.7142 28.17 26.7142C29.3558 26.7142 30.51 26.5904 31.6193 26.3542C31.9593 26.2806 32.3135 26.3087 32.6376 26.4352C32.9617 26.5616 33.2414 26.7807 33.4417 27.0652C33.6532 27.3609 33.761 27.7183 33.7484 28.0817C33.7358 28.445 33.6035 28.7941 33.372 29.0744C31.6073 31.2422 29.3811 32.9888 26.8556 34.1869C24.3302 35.385 21.5692 36.0044 18.774 35.9999C8.4015 35.9999 0 27.6434 0 17.3474C0 9.59844 4.7565 2.95194 11.529 0.134939C11.8664 -0.00763913 12.2409 -0.0369027 12.5963 0.0515444C12.9517 0.139992 13.2688 0.341374 13.5 0.625439V0.625439Z" fill="#DC5D5D"/>
</g>
<defs>
<clipPath id="clip0_303_31">
<rect width="36" height="36" fill="white"/>
</clipPath>
</defs>
</svg>
