<svg width="55" height="60" viewBox="0 0 55 60" fill="none" xmlns="http://www.w3.org/2000/svg">
<g clip-path="url(#clip0_117_164)">
<g filter="url(#filter0_d_117_164)">
<path d="M27.5 3.75C29.3869 3.74971 31.2057 4.51891 32.5993 5.90658C33.9929 7.29425 34.8607 9.20012 35.0323 11.25H46.75C47.2726 11.2502 47.7756 11.4667 48.1574 11.8559C48.5393 12.2451 48.7715 12.7779 48.8071 13.3466C48.8427 13.9154 48.6791 14.4777 48.3493 14.9199C48.0195 15.3621 47.5482 15.6513 47.0305 15.729L46.75 15.75H45.1468L41.6625 48.69C41.5073 50.1522 40.8649 51.5011 39.8573 52.4802C38.8498 53.4593 37.5475 54.0002 36.1982 54H18.8018C17.4525 54.0002 16.1502 53.4593 15.1426 52.4802C14.1351 51.5011 13.4927 50.1522 13.3375 48.69L9.8505 15.75H8.25C7.7516 15.75 7.27006 15.5531 6.89444 15.1957C6.51882 14.8383 6.27453 14.3447 6.20675 13.806L6.1875 13.5C6.18752 12.9563 6.36802 12.431 6.69561 12.0212C7.0232 11.6114 7.47573 11.3449 7.9695 11.271L8.25 11.25H19.9678C20.1393 9.20012 21.0071 7.29425 22.4007 5.90658C23.7943 4.51891 25.6131 3.74971 27.5 3.75ZM23.375 22.5C22.7013 22.5 22.1375 22.965 22.022 23.577L22 23.814V42.189L22.022 42.423C22.1375 43.035 22.7013 43.5 23.375 43.5C24.0487 43.5 24.6125 43.035 24.728 42.423L24.75 42.186V23.817L24.728 23.577C24.6125 22.968 24.0487 22.5 23.375 22.5ZM31.625 22.5C30.9513 22.5 30.3875 22.965 30.272 23.577L30.25 23.814V42.189L30.272 42.423C30.3875 43.035 30.9513 43.5 31.625 43.5C32.2987 43.5 32.8625 43.035 32.978 42.423L33 42.186V23.817L32.978 23.577C32.8625 22.968 32.2987 22.503 31.625 22.503V22.5ZM27.5 8.25C25.8363 8.25 24.4475 9.54 24.1312 11.25H30.8688C30.5498 9.54 29.1637 8.25 27.5 8.25Z" fill="#1B4F6F"/>
</g>
</g>
<defs>
<filter id="filter0_d_117_164" x="4.1875" y="1.75" width="52.6243" height="60.25" filterUnits="userSpaceOnUse" color-interpolation-filters="sRGB">
<feFlood flood-opacity="0" result="BackgroundImageFix"/>
<feColorMatrix in="SourceAlpha" type="matrix" values="0 0 0 0 0 0 0 0 0 0 0 0 0 0 0 0 0 0 127 0" result="hardAlpha"/>
<feOffset dx="3" dy="3"/>
<feGaussianBlur stdDeviation="2.5"/>
<feComposite in2="hardAlpha" operator="out"/>
<feColorMatrix type="matrix" values="0 0 0 0 0.105882 0 0 0 0 0.309804 0 0 0 0 0.431373 0 0 0 0.35 0"/>
<feBlend mode="normal" in2="BackgroundImageFix" result="effect1_dropShadow_117_164"/>
<feBlend mode="normal" in="SourceGraphic" in2="effect1_dropShadow_117_164" result="shape"/>
</filter>
<clipPath id="clip0_117_164">
<rect width="55" height="60" fill="white"/>
</clipPath>
</defs>
</svg>
