<svg width="60" height="60" viewBox="0 0 60 60" fill="none" xmlns="http://www.w3.org/2000/svg">
<path d="M27.5025 25H32.5025V37.5H27.5025V25ZM27.5 40H32.5V45H27.5V40Z" fill="white"/>
<path d="M34.4201 10.5C33.5501 8.86247 31.8551 7.84497 30.0001 7.84497C28.1451 7.84497 26.4501 8.86247 25.5801 10.5025L7.23512 45.16C6.82804 45.921 6.62639 46.7751 6.65006 47.6379C6.67374 48.5007 6.92191 49.3424 7.37012 50.08C7.81186 50.8209 8.43922 51.4338 9.19024 51.8582C9.94126 52.2826 10.79 52.5038 11.6526 52.5H48.3476C50.1176 52.5 51.7201 51.595 52.6326 50.08C53.0801 49.3421 53.3279 48.5005 53.3515 47.6378C53.3752 46.7752 53.174 45.9213 52.7676 45.16L34.4201 10.5ZM11.6526 47.5L30.0001 12.8425L48.3601 47.5H11.6526Z" fill="white"/>
</svg>
