<svg width="68" height="57" viewBox="0 0 68 57" fill="none" xmlns="http://www.w3.org/2000/svg">
<path fill-rule="evenodd" clip-rule="evenodd" d="M7.31321 0.144849C5.34707 0.647585 3.34365 2.58079 2.11686 5.15918C0.367509 8.83614 -0.416059 14.8801 0.218089 19.8066C0.607696 22.8332 1.24484 25.0284 2.99133 29.3599C4.64801 33.4686 4.67931 33.6023 4.3602 35.2097C4.01318 36.958 4.10654 38.8165 4.59807 39.9422C4.92508 40.691 5.15356 41.0326 6.3564 42.5718C6.97517 43.3635 7.0258 44.094 6.50555 44.7232C6.03525 45.2919 5.49772 45.6298 4.13675 46.2118C1.81108 47.2063 1.60342 47.8006 2.65684 50.4447C3.36815 52.2297 3.76129 52.7971 5.06116 53.9137C5.72375 54.483 6.64259 55.3538 7.10309 55.8487C8.09324 56.9133 8.4808 57.0922 9.39093 56.9046C9.81673 56.8169 10.0878 56.8128 10.2672 56.8913C10.6062 57.0397 11.1297 57.0358 11.5431 56.8816C11.7815 56.7927 12.0629 56.7914 12.5506 56.877C13.766 57.0903 14.8993 56.6424 14.8993 55.9485C14.8993 55.6376 14.7357 55.4379 13.903 54.7315C13.0645 54.0203 12.837 53.8866 12.4652 53.8866C12.2224 53.8866 11.9109 53.9359 11.7731 53.9963C11.4618 54.1327 11.3425 54.0525 9.80544 52.6736C8.00914 51.0624 8.15788 50.8146 11.0209 50.6475C11.9191 50.595 12.8921 50.5239 13.1832 50.4894C13.8481 50.4103 15.3051 49.8573 16.8001 49.1168L17.9525 48.5459L18.1218 49.2394C18.2762 49.8727 18.3532 49.976 19.0105 50.4317C19.4064 50.7061 20.2648 51.3689 20.9183 51.9047C22.2226 52.9742 22.9833 53.3487 24.8455 53.8387C25.475 54.0042 26.472 54.3369 27.0609 54.5778C28.5507 55.1875 29.7072 55.3492 32.6582 55.3607C36.4533 55.3755 36.8587 55.1578 35.5866 53.7883C34.576 52.7004 34.3413 52.6102 32.4541 52.5843L30.8891 52.5627L28.0994 51.3889C26.5651 50.7434 25.2291 50.1266 25.1306 50.0182C24.9206 49.7875 24.9689 49.2352 25.289 48.2066C25.4128 47.8084 25.5455 47.3035 25.5838 47.0847C25.622 46.8657 25.8348 46.4523 26.0568 46.1659L26.4604 45.645H29.8047C32.3652 45.645 33.3707 45.6863 34.0956 45.8213C35.3857 46.0614 36.2101 46.5318 36.8087 47.3695C37.0707 47.7361 37.6895 48.3876 38.1839 48.8173C39.1511 49.6583 39.3943 49.9581 39.3943 50.31C39.3943 50.8733 38.7368 51.4106 38.239 51.2543C37.9214 51.1546 37.391 51.3013 37.0731 51.5769C36.6335 51.958 36.4204 52.3546 36.2903 53.0336C36.1776 53.6215 36.1912 53.6705 36.556 53.9975C37.9325 55.2307 40.7051 54.8007 43.5077 52.9192C43.9512 52.6214 44.4027 52.4243 44.7523 52.376C46.498 52.1347 48.0375 50.9823 48.8792 49.2872C49.3272 48.3848 49.7367 46.6202 49.7367 45.5915V44.7663L50.3688 44.2868C51.2626 43.6089 52.8628 42.0199 53.8001 40.8798C55.0831 39.3191 56.1768 38.6334 57.9991 38.247C59.4314 37.9431 60.756 38.0632 62.7047 38.6732C63.2134 38.8323 63.8258 38.9625 64.0656 38.9624C64.682 38.9622 65.3959 38.6376 65.7594 38.1924C65.9302 37.9832 66.301 37.7274 66.5834 37.6239C67.0142 37.466 67.1695 37.3067 67.5485 36.6339L68 35.8321L67.3665 34.7805C66.7147 33.6985 66.3466 32.6025 66.3395 31.7234C66.3298 30.4959 65.5704 29.2034 64.2836 28.2246C63.8642 27.9056 63.4122 27.5087 63.2791 27.3426C63.0437 27.0484 63.0462 27.027 63.3726 26.5142C63.557 26.2246 64.1816 25.444 64.7607 24.7795C65.7788 23.6108 66.0395 23.2591 65.8873 23.2591C65.8474 23.2591 64.7969 23.6579 63.5528 24.1454C61.5981 24.9112 61.2791 25.0058 61.2051 24.8415C61.158 24.7368 61.0566 24.617 60.9799 24.5751C60.5561 24.3437 58.9662 24.9226 55.5897 26.5378C50.0986 29.1646 46.932 30.4942 46.1601 30.497C45.9519 30.4978 45.5539 30.415 45.2756 30.3131C44.9192 30.1827 44.1664 30.105 42.7284 30.0502C40.3236 29.9585 39.7364 29.824 34.9716 28.273C33.325 27.7369 31.6716 27.2177 31.2974 27.1191C28.4927 26.3797 23.5614 26.3749 18.7777 27.1068C16.4048 27.4699 12.2891 28.3485 10.218 28.9343C9.62826 29.101 9.36779 29.1292 9.23674 29.0402C8.89137 28.8057 6.05947 23.9657 5.44832 22.5653C3.8111 18.8142 3.15926 15.7778 3.46422 13.3238C3.80144 10.611 4.80464 8.86042 6.98048 7.18794C9.93703 4.91549 10.9416 3.64005 10.9454 2.15401C10.9498 0.529196 9.32506 -0.369469 7.31321 0.144849Z" fill="white"/>
</svg>
