<svg width="71" height="56" viewBox="0 0 71 56" fill="none" xmlns="http://www.w3.org/2000/svg">
<path fill-rule="evenodd" clip-rule="evenodd" d="M25.8534 0.180218C22.386 0.87054 19.53 3.1712 18.1635 6.37508C17.0505 8.98437 16.9904 12.0686 18.0012 14.6975C18.6137 16.2911 19.4037 17.4162 20.7874 18.6657C22.2345 19.9725 23.1518 20.5222 24.6966 21.0084C26.0376 21.4305 28.3265 21.5405 29.7023 21.249C33.6989 20.4022 36.7763 17.3657 37.8147 13.245C38.1851 11.7747 38.1236 9.25353 37.6804 7.74081C36.1465 2.50531 30.9288 -0.830142 25.8534 0.180218ZM48.6004 5.12438C44.4891 5.71282 40.9909 8.77435 39.7857 12.8386C39.3715 14.2352 39.3663 16.6907 39.7745 18.0559C40.9531 21.9974 44.3078 24.4618 48.4694 24.4435C52.8161 24.4243 56.6226 21.6585 58.277 17.3171C58.732 16.1234 58.7422 16.0511 58.7395 14.029C58.7372 12.143 58.7055 11.8771 58.3793 11.0007C57.3388 8.20545 55.0212 6.09 52.1703 5.33364C51.2464 5.08854 49.5469 4.98879 48.6004 5.12438ZM6.46354 12.5941C1.33985 13.7158 -1.34878 19.0667 0.677934 24.1086C1.83397 26.9843 4.35507 29.2325 7.39347 30.0973C8.75757 30.4856 10.8841 30.4846 12.2756 30.095C14.2953 29.5298 16.1055 28.1088 17.1176 26.2942C17.9237 24.8491 18.1957 23.6281 18.1184 21.8015C18.0621 20.4686 17.9859 20.055 17.6134 19.06C16.9704 17.3432 16.2289 16.2772 14.764 14.9642C13.7486 14.054 13.2672 13.7277 12.3119 13.3021C10.3884 12.4453 8.29885 12.1923 6.46354 12.5941ZM60.8302 21.6182C60.2958 21.7239 59.2268 22.087 58.4544 22.4249C54.7773 24.034 52.2927 27.5736 52.2975 31.1962C52.3007 33.5518 53.0744 35.3106 54.7799 36.8401C56.5564 38.4332 58.355 39.0399 60.969 38.9275C62.6923 38.8534 63.9018 38.5385 65.462 37.7575C66.6676 37.154 68.7183 35.3062 69.4759 34.141C71.2704 31.3804 71.4963 28.0823 70.0684 25.4947C69.3773 24.2425 68.6689 23.4977 67.459 22.7513C65.5893 21.5979 63.0905 21.1708 60.8302 21.6182ZM30.0104 23.0429C26.9813 23.5246 24.3465 24.6079 21.9671 26.3503C20.1124 27.7084 19.1464 28.8774 14.6494 35.2061C12.2741 38.5487 10.1554 41.6219 9.94095 42.0354C8.63654 44.5513 8.64237 47.8003 9.9558 50.3346C11.3717 53.0663 14.0128 55.0171 17.3163 55.7713C18.3059 55.9972 18.7629 56.0293 20.2956 55.9801C21.8675 55.9296 22.2614 55.8714 23.2857 55.5388C28.6363 53.8015 29.198 53.6942 32.9321 53.6981C35.2684 53.7005 35.932 53.7448 37.1229 53.9779C38.4785 54.2432 39.0279 54.3997 42.3008 55.4528C43.6182 55.8767 43.9249 55.9269 45.4932 55.9764C47.9854 56.055 49.693 55.6796 51.7057 54.6107C52.8226 54.0175 54.6242 52.3624 55.3419 51.2704C56.3217 49.7794 56.7558 48.4457 56.8388 46.6718C56.9198 44.9434 56.7021 43.7273 56.068 42.3647C55.7146 41.6053 49.6297 32.8711 47.2834 29.7552C46.4385 28.6333 44.7566 26.9761 43.6194 26.1454C40.0089 23.5076 34.6996 22.2972 30.0104 23.0429Z" fill="white"/>
</svg>
