<svg width="48" height="58" viewBox="0 0 48 58" fill="none" xmlns="http://www.w3.org/2000/svg">
<path fill-rule="evenodd" clip-rule="evenodd" d="M41.6678 0.0738746C41.3819 0.197117 41.24 0.618367 41.3539 1.00648C41.3964 1.1514 41.8549 2.16367 42.3728 3.25594C44.4079 7.54811 44.9783 10.0862 44.961 14.7745C44.95 17.7401 44.771 19.3698 44.1194 22.4346C43.7122 24.3501 43.5059 24.9552 43.1172 25.3729C42.4649 26.0739 41.7164 26.0495 39.7025 25.2616C37.6793 24.4702 34.7719 23.7335 31.5004 23.1837C29.9208 22.9183 28.2867 22.7247 19.4304 21.7537C14.836 21.25 12.4706 20.7007 11.9752 20.0225C11.7625 19.7314 11.7568 19.6611 11.8915 19.0012C11.9712 18.6114 12.1803 18.0371 12.3565 17.7251C12.9529 16.6678 13.0733 15.9974 13.0064 14.1044L12.9466 12.4078L13.341 11.3825C14.2687 8.97107 14.2769 7.48569 13.3679 6.52642C13.0414 6.18177 12.8744 6.09302 12.5528 6.09302C12.0111 6.09302 11.6043 6.51359 10.9276 7.77303C9.79166 9.88699 9.17058 10.6918 8.351 11.1116C7.95454 11.3146 7.7792 11.3319 6.82746 11.2617C5.3964 11.1563 5.10305 11.0206 4.68907 10.2724C3.83726 8.73287 3.5906 8.33942 3.082 7.70846C2.45934 6.93598 1.6073 6.31999 1.16145 6.31999C0.710955 6.31999 0.322978 6.7813 0.138599 7.53642C-0.064885 8.36995 -0.0408059 10.2935 0.187775 11.4477C0.305909 12.0448 0.339822 12.6383 0.295169 13.3297C0.206201 14.7074 0.447895 15.7626 1.12188 16.9393C1.77473 18.0791 1.81474 18.1852 2.07871 19.4721C2.39671 21.022 2.60867 23.0175 2.68882 25.2149C2.82402 28.9262 3.24908 31.909 3.87253 33.5206C4.45992 35.0392 5.6901 36.5072 8.11778 38.5863C9.70349 39.9444 10.5265 40.7954 10.8367 41.3975C11.2104 42.1229 13.0636 46.7033 13.4384 47.8283C13.9648 49.4075 14.603 52.0282 14.6903 52.9679L14.7594 53.7119L14.2083 54.1883C13.9051 54.4504 13.4287 54.8327 13.1496 55.0379C12.4358 55.5629 12.0968 56.097 12.1731 56.5767C12.3309 57.5691 13.1201 58.018 14.6745 57.9995C15.8164 57.9859 16.5659 57.7353 16.957 57.236C17.1113 57.0392 17.3179 56.2748 17.6117 54.8132C17.8478 53.6387 18.1449 52.1672 18.272 51.5431C18.4794 50.5234 18.5046 49.953 18.5194 45.9256C18.5347 41.7686 18.5531 41.3772 18.7729 40.5374C19.0315 39.5491 19.2878 39.2301 19.8232 39.2301C21.2774 39.2301 24.9828 40.6793 27.5053 42.2346C28.096 42.5988 29.6422 43.533 30.9414 44.3105C34.1406 46.2253 34.7055 46.771 34.6025 47.847C34.5325 48.5771 34.0861 49.1969 32.8196 50.322C31.5198 51.4766 31.2539 51.6268 30.5733 51.5915C29.0126 51.5106 28.6546 51.541 28.3329 51.7819C27.6043 52.3274 27.3874 53.2066 27.8554 53.7168C29.0807 55.0524 31.9266 54.4474 35.1925 52.1571C36.335 51.3559 38.4234 49.2241 38.9367 48.3349C39.3837 47.5606 39.4434 47.561 39.7685 48.3423C39.9854 48.8635 39.985 49.2245 39.766 50.0681C39.5295 50.9796 38.502 53.5787 38.2591 53.8798C38.1207 54.0514 37.8152 54.17 37.2212 54.2825C36.1681 54.4822 35.7268 54.8524 35.7268 55.5368C35.7268 56.5654 36.5683 57.2484 37.654 57.101C38.5643 56.9775 39.8442 56.5962 40.2116 56.3391C40.6451 56.0359 40.7014 55.9479 41.1392 54.8908C41.3331 54.4227 41.7966 53.3247 42.1692 52.4509C43.4969 49.3372 44.1931 46.8601 44.1008 45.5783C44.0567 44.967 44.009 44.8679 43.4921 44.3138C42.863 43.6394 42.2099 42.7599 41.9333 42.2147C41.6585 41.6727 41.7076 41.2754 42.1269 40.6472C42.7321 39.7402 43.9011 37.6622 44.3674 36.6645C44.9364 35.4466 45.1039 34.6525 45.2499 32.4779C45.4024 30.2073 45.4896 29.7087 46.1028 27.5981C47.5156 22.737 48.0001 19.4761 48 14.8312C47.9998 10.8278 47.5105 7.43406 46.5402 4.70717C45.8045 2.6395 44.5628 0.820027 43.5245 0.288244C43.0133 0.0264386 42.0388 -0.0860232 41.6678 0.0738746Z" fill="white"/>
</svg>
