<svg width="80" height="80" viewBox="0 0 80 80" fill="none" xmlns="http://www.w3.org/2000/svg">
<path fill-rule="evenodd" clip-rule="evenodd" d="M36.3133 2.48364C30.4383 3.33572 25.4028 5.29139 20.6381 8.57153C15.7611 11.929 12.0263 16.0996 9.06863 21.4908C8.51051 22.5082 8.05379 23.3811 8.05379 23.4302C8.05379 23.4795 8.43456 23.6799 8.90011 23.8754C10.1195 24.3879 10.9243 24.9727 13.5912 27.2838L15.9641 29.3402H18.083H20.2018L22.7749 27.1234C25.6347 24.6596 26.3478 24.1778 27.8502 23.6945C29.1616 23.2724 31.1387 23.2471 32.4052 23.6361C35.3665 24.5456 37.5517 26.856 38.2971 29.865C38.6232 31.1815 38.6262 45.0621 38.3009 46.985C37.4238 52.1685 34.0533 56.7319 29.4324 58.9917C28.9265 59.2391 28.5125 59.4809 28.5125 59.529C28.5125 59.6297 30.0061 60.5338 31.0882 61.0884C32.7289 61.929 35.7343 62.8565 37.7291 63.1375L38.625 63.2639L38.7162 61.2061C38.8232 58.7964 39.1518 57.3063 39.9248 55.7243C41.2284 53.0562 42.5893 51.7462 46.2851 49.6009C47.1148 49.1194 47.7937 48.7053 47.7937 48.6807C47.7937 48.6561 47.5523 48.2708 47.2574 47.8244C42.8683 41.1828 45.2258 32.0724 52.2567 28.5055C53.7415 27.7522 55.2458 27.3118 56.8824 27.151L57.9495 27.0464V29.3872V31.7282L57.0468 31.8333C54.2241 32.1625 51.67 34.0252 50.4364 36.6544C49.2611 39.1592 49.3053 41.914 50.5615 44.4517C51.1358 45.612 52.0254 46.5636 53.8705 47.9913C55.46 49.2211 55.688 49.4491 55.4749 49.5954C55.3383 49.6895 53.1539 50.9854 50.6207 52.4757C45.4747 55.5028 44.8924 55.9709 44.0356 57.7717C43.4179 59.0703 43.231 60.0282 43.231 61.8959V63.3126L43.7093 63.2302C47.0899 62.6486 48.5533 62.1857 51.1054 60.8911C53.1283 59.8648 55.2817 58.3627 56.5552 57.0896L57.148 56.497L58.763 58.1678L60.378 59.8386L59.5685 60.5992C52.7981 66.9606 43.4322 69.4487 34.4925 67.2604C30.6368 66.3167 26.5935 64.2207 23.4866 61.5552L22.3612 60.5897H17.7652H13.1692L13.231 61.9196C13.2815 63.0109 13.3759 63.4327 13.756 64.2701C14.3813 65.6474 14.803 66.1848 16.4433 67.6953C20.7691 71.6785 25.4771 74.3878 30.8361 75.9776C39.8288 78.6452 49.689 77.6314 57.8759 73.1972C61.3673 71.3061 63.7515 69.4818 66.7151 66.4336C72.6877 60.2904 76.0357 53.3037 77.2573 44.434C77.4996 42.6753 77.5012 36.9575 77.2601 35.1805C76.4171 28.969 74.5009 23.6972 71.3081 18.8056C70.0192 16.8306 68.9904 15.533 67.2277 13.6593C61.5374 7.60977 54.4973 3.85589 46.3955 2.5513C44.0086 2.16705 38.7402 2.13155 36.3133 2.48364ZM4.69548 28.2543C3.80825 28.5803 3.02552 29.2837 2.5582 30.1745C2.24396 30.7737 2.23999 30.8778 2.23999 38.442C2.23999 45.4035 2.26457 46.1918 2.5089 47.0799C3.73848 51.5476 7.05868 54.7559 11.3871 55.6581C12.4152 55.8725 13.4549 55.9003 18.6727 55.8529C24.5713 55.7994 24.7911 55.7868 25.7896 55.4456C29.9122 54.0368 32.7062 50.9942 33.6725 46.8611C33.9324 45.7493 33.9564 45.033 33.9573 38.3233C33.9585 30.4167 33.9694 30.5383 33.1571 29.4406C32.9509 29.1619 32.4341 28.7358 32.0087 28.4934C31.0018 27.9197 29.5091 27.8736 28.5861 28.3877C28.2623 28.568 26.6106 29.9142 24.9157 31.3791L21.8343 34.0428L18.0716 34.04L14.3092 34.0373L11.2395 31.3802C9.55111 29.9187 7.90337 28.583 7.5778 28.4119C6.72648 27.9643 5.64541 27.9051 4.69548 28.2543ZM22.5221 45.619C22.1011 46.3308 18.2957 51.3397 18.2028 51.3042C18.1398 51.28 17.1194 49.9462 15.9351 48.3402L13.7819 45.42H18.2109C21.8272 45.42 22.6182 45.4566 22.5221 45.619Z" fill="#1B4F6F"/>
</svg>
