<svg width="105" height="87" viewBox="0 0 105 87" fill="none" xmlns="http://www.w3.org/2000/svg">
<path fill-rule="evenodd" clip-rule="evenodd" d="M38.234 0.208261C33.1061 1.006 28.8824 3.66466 26.8616 7.36709C25.2156 10.3824 25.1267 13.9465 26.6214 16.9846C27.5272 18.8261 28.6956 20.1263 30.7419 21.5702C32.8819 23.0804 34.2385 23.7157 36.5231 24.2775C38.5063 24.7652 41.8913 24.8924 43.9259 24.5555C49.8364 23.5769 54.3875 20.068 55.9231 15.306C56.4709 13.607 56.38 10.6935 55.7246 8.94534C53.456 2.89516 45.7398 -0.959318 38.234 0.208261ZM71.8739 5.92177C65.7938 6.60178 60.6203 10.1397 58.838 14.8364C58.2255 16.4503 58.2177 19.2879 58.8214 20.8656C60.5645 25.4203 65.5257 28.2682 71.6801 28.2471C78.1083 28.2249 83.7376 25.0288 86.1844 20.0118C86.8572 18.6324 86.8722 18.5488 86.8683 16.212C86.8648 14.0326 86.818 13.7253 86.3356 12.7125C84.7968 9.48228 81.3693 7.03765 77.1532 6.1636C75.787 5.88035 73.2735 5.76509 71.8739 5.92177ZM9.55875 14.5539C1.98148 15.85 -1.99467 22.0336 1.00258 27.86C2.71221 31.1832 6.4406 33.7813 10.934 34.7807C12.9513 35.2294 16.0962 35.2283 18.1541 34.778C21.1409 34.1248 23.8179 32.4827 25.3147 30.3858C26.5069 28.7158 26.9092 27.3048 26.7949 25.194C26.7115 23.6537 26.5988 23.1757 26.0479 22.0259C25.0971 20.0419 24.0004 18.81 21.8341 17.2927C20.3324 16.2409 19.6205 15.8638 18.2077 15.372C15.3632 14.3818 12.2729 14.0895 9.55875 14.5539ZM89.9602 24.9821C89.1699 25.1044 87.589 25.5239 86.4467 25.9144C81.0087 27.7739 77.3343 31.8642 77.3414 36.0506C77.3462 38.7727 78.4903 40.8052 81.0126 42.5727C83.6397 44.4137 86.2997 45.1148 90.1654 44.9849C92.714 44.8993 94.5026 44.5354 96.81 43.6329C98.5929 42.9355 101.626 40.8001 102.746 39.4536C105.4 36.2635 105.734 32.4522 103.622 29.4619C102.6 28.0148 101.553 27.1541 99.7633 26.2916C96.9982 24.9587 93.3029 24.4652 89.9602 24.9821Z" fill="white"/>
<path fill-rule="evenodd" clip-rule="evenodd" d="M42.9303 30.5022C36.7915 31.3279 31.4518 33.185 26.6297 36.172C22.8709 38.5001 20.9132 40.5041 11.7995 51.3533C6.98586 57.0835 2.69203 62.3518 2.25744 63.0607C-0.386084 67.3737 -0.374269 72.9434 2.28754 77.2878C5.15694 81.9707 10.5095 85.315 17.2044 86.6079C19.21 86.9952 20.136 87.0502 23.2422 86.9658C26.4278 86.8792 27.2261 86.7796 29.302 86.2094C40.1455 83.231 41.2839 83.0472 48.8513 83.0538C53.5862 83.0579 54.9311 83.1339 57.3445 83.5335C60.0918 83.9883 61.2051 84.2566 67.8381 86.0619C70.5078 86.7886 71.1295 86.8747 74.3077 86.9596C79.3585 87.0943 82.8192 86.4507 86.8981 84.6183C89.1616 83.6014 92.8127 80.7641 94.2672 78.892C96.2528 76.3362 97.1327 74.0497 97.3009 71.0088C97.4649 68.0458 97.0238 65.9611 95.7386 63.6252C95.0225 62.3234 82.6909 47.3505 77.9358 42.0089C76.2236 40.0857 72.8149 37.2447 70.5104 35.8207C63.1933 31.2987 52.4335 29.2238 42.9303 30.5022Z" fill="white"/>
<path d="M46.3751 59C46.3751 59.5719 46.6516 60.1203 47.1439 60.5247C47.6362 60.9291 48.3039 61.1562 49.0001 61.1562C49.6963 61.1562 50.3639 60.9291 50.8562 60.5247C51.3485 60.1203 51.6251 59.5719 51.6251 59C51.6251 58.4281 51.3485 57.8797 50.8562 57.4753C50.3639 57.0709 49.6963 56.8438 49.0001 56.8438C48.3039 56.8438 47.6362 57.0709 47.1439 57.4753C46.6516 57.8797 46.3751 58.4281 46.3751 59ZM57.3126 59C57.3126 59.5719 57.5891 60.1203 58.0814 60.5247C58.5737 60.9291 59.2414 61.1562 59.9376 61.1562C60.6338 61.1562 61.3014 60.9291 61.7937 60.5247C62.286 60.1203 62.5626 59.5719 62.5626 59C62.5626 58.4281 62.286 57.8797 61.7937 57.4753C61.3014 57.0709 60.6338 56.8438 59.9376 56.8438C59.2414 56.8438 58.5737 57.0709 58.0814 57.4753C57.5891 57.8797 57.3126 58.4281 57.3126 59ZM35.4376 59C35.4376 59.5719 35.7141 60.1203 36.2064 60.5247C36.6987 60.9291 37.3664 61.1562 38.0626 61.1562C38.7588 61.1562 39.4264 60.9291 39.9187 60.5247C40.411 60.1203 40.6876 59.5719 40.6876 59C40.6876 58.4281 40.411 57.8797 39.9187 57.4753C39.4264 57.0709 38.7588 56.8438 38.0626 56.8438C37.3664 56.8438 36.6987 57.0709 36.2064 57.4753C35.7141 57.8797 35.4376 58.4281 35.4376 59ZM71.5969 51.2016C70.361 48.7893 68.5891 46.624 66.3305 44.7643C64.0877 42.9153 61.4253 41.4455 58.4938 40.4383C55.486 39.4006 52.2923 38.875 49.0001 38.875H48.8907C45.5766 38.8885 42.3665 39.4275 39.3477 40.4877C36.4414 41.5053 33.8039 42.9776 31.5821 44.8227C29.3454 46.6779 27.5899 48.8342 26.3758 51.2375C25.118 53.7262 24.4837 56.3721 24.5001 59.0943C24.5186 62.214 25.4171 65.2877 27.1251 68.0742V74.9023C27.1251 75.4504 27.3901 75.976 27.8619 76.3635C28.3336 76.751 28.9735 76.9688 29.6407 76.9688H37.9587C41.3509 78.3717 45.0928 79.1098 48.8907 79.125H49.0055C52.2813 79.125 55.4587 78.6039 58.4501 77.5842C61.3667 76.5889 64.0193 75.1363 66.2594 73.3076C68.518 71.4703 70.2954 69.323 71.5368 66.9287C72.8274 64.449 73.4837 61.8121 73.5001 59.0898C73.5165 56.3541 72.8712 53.6992 71.5969 51.2016ZM63.3337 70.8773C59.5001 73.9949 54.4141 75.7109 49.0001 75.7109H48.9071C45.6094 75.6975 42.3337 75.0236 39.4407 73.7568L38.9813 73.5547H31.2813V67.2297L31.0352 66.8523C29.493 64.476 28.6727 61.7852 28.6563 59.0764C28.6344 54.5977 30.718 50.393 34.5407 47.226C38.3579 44.059 43.4602 42.307 48.9126 42.2891H49.0055C51.7399 42.2891 54.3923 42.7248 56.8915 43.5873C59.3305 44.4273 61.518 45.6357 63.3993 47.1811C65.2751 48.7219 66.7516 50.5232 67.7743 52.5268C68.8352 54.6021 69.3657 56.8033 69.3548 59.0764C69.3219 63.5506 67.1837 67.7418 63.3337 70.8773Z" fill="#1B4F6F"/>
</svg>
