<svg width="60" height="55" viewBox="0 0 60 55" fill="none" xmlns="http://www.w3.org/2000/svg">
<path fill-rule="evenodd" clip-rule="evenodd" d="M46.7311 0.0320212C46.2858 0.124325 45.9601 0.293681 45.7142 0.560689C45.608 0.676097 44.9936 2.02525 44.3488 3.5589L43.1764 6.34736L42.2428 6.85953C39.4443 8.39466 37.9041 10.2728 36.9693 13.29C36.8461 13.6877 36.7669 14.7159 36.7064 16.7045C36.6292 19.2392 36.5917 19.62 36.3628 20.1926C35.9306 21.2734 34.877 22.2363 33.7477 22.5824C33.5325 22.6483 32.3534 22.7456 31.1274 22.7984C29.6789 22.861 28.5286 22.9737 27.8424 23.1204C21.8196 24.4078 16.9967 28.6559 15.1273 34.3202C14.3882 36.5598 14.3505 36.9748 14.3505 42.8818C14.3505 46.928 14.3876 48.3558 14.5028 48.7433C14.7415 49.5461 15.1313 50.4681 15.4281 50.9319C15.5774 51.1655 15.6997 51.3831 15.6997 51.4156C15.6997 51.4482 13.5483 51.4743 10.9189 51.4737L6.13801 51.4725L5.53944 51.2022C4.79609 50.8665 4.20339 50.3017 3.83758 49.5807C3.61725 49.1466 3.55695 48.8443 3.55695 48.1742C3.55695 47.1887 3.82444 46.5345 4.50561 45.854C5.20789 45.1525 5.74229 44.9553 7.1715 44.8699C8.16462 44.8105 8.50661 44.7456 8.74806 44.5707C9.83363 43.7845 9.85369 42.407 8.78971 41.7175C8.43868 41.49 8.2444 41.4591 7.16411 41.4591C6.42569 41.4591 5.65031 41.5309 5.21634 41.6395C2.81665 42.2401 0.831695 44.1784 0.212943 46.5251C-0.213989 48.1445 0.00634031 49.8938 0.826298 51.3967C1.36011 52.375 2.64642 53.6019 3.68506 54.1235C5.43995 55.0048 3.93965 54.9372 22.6216 54.9767C31.8167 54.996 39.4586 54.9834 39.6039 54.9484C39.8635 54.8859 39.8679 54.8556 39.8679 53.1193C39.8679 51.2306 39.7975 50.9073 39.2292 50.1844C39.0648 49.9753 38.6529 49.657 38.3138 49.4769C37.7184 49.1607 37.6273 49.1474 35.6443 49.0878C33.3111 49.0176 33.131 48.9586 32.717 48.1288C32.4885 47.6709 32.4766 47.4468 32.4766 43.5912C32.4766 41.1241 32.4268 39.2993 32.3494 38.9323C32.2794 38.6007 31.9843 37.8485 31.6937 37.2607C31.2717 36.4079 30.9957 36.0287 30.3251 35.3811C29.0015 34.1028 27.5803 33.4804 25.5273 33.2796C24.9236 33.2206 24.3791 33.1008 24.2018 32.9881C23.4425 32.5055 23.2014 31.365 23.7069 30.6466C24.1722 29.9854 24.6349 29.8227 25.848 29.8941C30.4479 30.1647 34.3803 33.2871 35.6687 37.6919C35.8976 38.4745 35.9261 38.8956 35.9677 42.1136L36.014 45.6703L36.7383 45.6722C38.5671 45.6772 40.1825 46.3196 41.4563 47.5482C42.6778 48.7264 43.3875 50.2217 43.3875 51.6171C43.3875 52.3222 43.7186 52.9525 44.4541 53.6474C45.4772 54.6142 46.7188 54.9968 48.8429 55C50.7584 55.0028 51.7878 54.6884 52.6206 53.8461C53.5694 52.8863 53.8337 51.203 53.2161 50.0521C52.6961 49.083 51.4907 48.1844 50.7004 48.1767C50.0451 48.1702 50.0748 48.3633 50.0748 44.1128V40.1896L51.0209 38.8166C52.5335 36.6213 53.6157 34.2448 54.2486 31.728C54.745 29.7543 54.885 28.2714 54.8853 24.9787L54.8857 21.9399L56.7955 20.6031C57.846 19.8678 58.7908 19.1252 58.8952 18.9528C59.1722 18.4952 60.0842 13.9729 59.9937 13.5052C59.8758 12.8952 59.4352 12.509 57.6552 11.4554C56.1696 10.576 55.9457 10.4027 55.6979 9.94128C55.544 9.65481 54.9401 8.95314 54.3559 8.38214C53.4461 7.49302 53.1315 7.26755 52.1642 6.81104C51.4253 6.46231 50.6963 6.21556 50.0561 6.09742C49.5179 5.99806 49.0116 5.90007 48.9309 5.87958C48.8197 5.85136 48.7843 5.28945 48.7843 3.55686C48.7843 1.11132 48.747 0.921481 48.1615 0.390992C47.8165 0.0783437 47.2244 -0.0701843 46.7311 0.0320212ZM53.0464 11.3397C53.5483 11.5431 54.035 12.1153 54.1318 12.6155C54.2374 13.1615 53.91 13.9584 53.4494 14.2766C52.8994 14.6565 52.002 14.6903 51.4827 14.3507C50.3479 13.6087 50.4257 12.0021 51.6241 11.4266C52.2113 11.1446 52.5187 11.1259 53.0464 11.3397Z" fill="white"/>
</svg>
