<svg width="105" height="87" viewBox="0 0 105 87" fill="none" xmlns="http://www.w3.org/2000/svg">
<path fill-rule="evenodd" clip-rule="evenodd" d="M38.234 0.208261C33.1061 1.006 28.8824 3.66466 26.8616 7.36709C25.2156 10.3824 25.1267 13.9465 26.6214 16.9846C27.5272 18.8261 28.6956 20.1263 30.7419 21.5702C32.8819 23.0804 34.2385 23.7157 36.5231 24.2775C38.5063 24.7652 41.8913 24.8924 43.9259 24.5555C49.8364 23.5769 54.3875 20.068 55.9231 15.306C56.4709 13.607 56.38 10.6934 55.7246 8.94534C53.456 2.89516 45.7398 -0.959318 38.234 0.208261ZM71.8739 5.92177C65.7938 6.60178 60.6203 10.1397 58.838 14.8364C58.2255 16.4503 58.2177 19.2879 58.8214 20.8656C60.5645 25.4203 65.5257 28.2682 71.6801 28.2471C78.1083 28.2249 83.7376 25.0288 86.1844 20.0118C86.8572 18.6324 86.8722 18.5488 86.8683 16.212C86.8648 14.0326 86.818 13.7253 86.3356 12.7125C84.7968 9.48228 81.3693 7.03765 77.1532 6.1636C75.787 5.88035 73.2735 5.76509 71.8739 5.92177ZM9.55875 14.5539C1.98148 15.85 -1.99467 22.0336 1.00258 27.86C2.71221 31.1832 6.4406 33.7813 10.934 34.7807C12.9513 35.2294 16.0962 35.2283 18.1541 34.778C21.1409 34.1248 23.8179 32.4827 25.3147 30.3858C26.5069 28.7158 26.9092 27.3048 26.7949 25.194C26.7115 23.6537 26.5988 23.1757 26.0479 22.0259C25.0971 20.0419 24.0004 18.81 21.8341 17.2927C20.3324 16.2409 19.6205 15.8638 18.2077 15.372C15.3632 14.3818 12.2729 14.0895 9.55875 14.5539ZM89.9602 24.9821C89.1699 25.1044 87.589 25.5239 86.4467 25.9144C81.0087 27.7739 77.3343 31.8642 77.3414 36.0506C77.3462 38.7727 78.4903 40.8052 81.0126 42.5727C83.6397 44.4137 86.2997 45.1148 90.1654 44.9849C92.714 44.8993 94.5026 44.5354 96.81 43.6329C98.5929 42.9355 101.626 40.8001 102.746 39.4536C105.4 36.2635 105.734 32.4522 103.622 29.4619C102.6 28.0148 101.553 27.1541 99.7633 26.2916C96.9982 24.9587 93.3029 24.4652 89.9602 24.9821Z" fill="white"/>
<path fill-rule="evenodd" clip-rule="evenodd" d="M42.9303 30.5022C36.7915 31.3279 31.4518 33.185 26.6297 36.172C22.8709 38.5001 20.9132 40.5041 11.7995 51.3533C6.98586 57.0835 2.69203 62.3518 2.25744 63.0607C-0.386084 67.3737 -0.374269 72.9434 2.28754 77.2878C5.15694 81.9707 10.5095 85.315 17.2044 86.6079C19.21 86.9952 20.136 87.0502 23.2422 86.9658C26.4278 86.8792 27.2261 86.7796 29.302 86.2094C40.1455 83.231 41.2839 83.0472 48.8513 83.0538C53.5862 83.0579 54.9311 83.1339 57.3445 83.5335C60.0918 83.9883 61.2051 84.2566 67.8381 86.0619C70.5078 86.7886 71.1295 86.8747 74.3077 86.9596C79.3585 87.0943 82.8192 86.4507 86.8981 84.6183C89.1616 83.6014 92.8127 80.7641 94.2672 78.892C96.2528 76.3362 97.1327 74.0497 97.3009 71.0088C97.4649 68.0458 97.0238 65.9611 95.7386 63.6252C95.0225 62.3234 82.6909 47.3505 77.9358 42.0089C76.2236 40.0857 72.8149 37.2447 70.5104 35.8207C63.1933 31.2987 52.4335 29.2238 42.9303 30.5022Z" fill="white"/>
<path d="M74.632 77.0615L60.1761 63.3664C62.4193 60.6189 63.6328 57.2598 63.6328 53.7266C63.6328 49.4973 61.8905 45.5316 58.7399 42.5416C55.5894 39.5516 51.3923 37.9062 46.9336 37.9062C42.4749 37.9062 38.2778 39.5568 35.1272 42.5416C31.9711 45.5264 30.2344 49.4973 30.2344 53.7266C30.2344 57.9506 31.9767 61.9268 35.1272 64.9115C38.2778 67.9016 42.4693 69.5469 46.9336 69.5469C50.6631 69.5469 54.2033 68.3973 57.1034 66.2773L71.5594 79.9672C71.6018 80.0074 71.6521 80.0392 71.7075 80.061C71.7629 80.0827 71.8223 80.0939 71.8822 80.0939C71.9422 80.0939 72.0016 80.0827 72.057 80.061C72.1124 80.0392 72.1627 80.0074 72.2051 79.9672L74.632 77.6732C74.6744 77.6331 74.7081 77.5854 74.731 77.5329C74.754 77.4804 74.7658 77.4242 74.7658 77.3674C74.7658 77.3106 74.754 77.2543 74.731 77.2018C74.7081 77.1494 74.6744 77.1017 74.632 77.0615ZM55.7508 62.0797C53.3906 64.3104 50.2623 65.5391 46.9336 65.5391C43.6049 65.5391 40.4766 64.3104 38.1164 62.0797C35.7618 59.8438 34.4648 56.8801 34.4648 53.7266C34.4648 50.573 35.7618 47.6041 38.1164 45.3734C40.4766 43.1428 43.6049 41.9141 46.9336 41.9141C50.2623 41.9141 53.3962 43.1375 55.7508 45.3734C58.1054 47.6094 59.4023 50.573 59.4023 53.7266C59.4023 56.8801 58.1054 59.849 55.7508 62.0797Z" fill="#1B4F6F"/>
</svg>
