<svg width="105" height="87" viewBox="0 0 105 87" fill="none" xmlns="http://www.w3.org/2000/svg">
<path fill-rule="evenodd" clip-rule="evenodd" d="M38.234 0.208261C33.1061 1.006 28.8824 3.66466 26.8616 7.36709C25.2156 10.3824 25.1267 13.9465 26.6214 16.9846C27.5272 18.8261 28.6956 20.1263 30.7419 21.5702C32.8819 23.0804 34.2385 23.7157 36.5231 24.2775C38.5063 24.7652 41.8913 24.8924 43.9259 24.5555C49.8364 23.5769 54.3875 20.068 55.9231 15.306C56.4709 13.607 56.38 10.6934 55.7246 8.94534C53.456 2.89516 45.7398 -0.959318 38.234 0.208261ZM71.8739 5.92177C65.7938 6.60178 60.6203 10.1397 58.838 14.8364C58.2255 16.4503 58.2177 19.2879 58.8214 20.8656C60.5645 25.4203 65.5257 28.2682 71.6801 28.2471C78.1083 28.2249 83.7376 25.0288 86.1844 20.0118C86.8572 18.6324 86.8722 18.5488 86.8683 16.212C86.8648 14.0326 86.818 13.7253 86.3356 12.7125C84.7968 9.48228 81.3693 7.03765 77.1532 6.1636C75.787 5.88035 73.2735 5.76509 71.8739 5.92177ZM9.55875 14.5539C1.98148 15.85 -1.99467 22.0336 1.00258 27.86C2.71221 31.1832 6.4406 33.7813 10.934 34.7807C12.9513 35.2294 16.0962 35.2283 18.1541 34.778C21.1409 34.1248 23.8179 32.4827 25.3147 30.3858C26.5069 28.7158 26.9092 27.3048 26.7949 25.194C26.7115 23.6537 26.5988 23.1757 26.0479 22.0259C25.0971 20.0419 24.0004 18.81 21.8341 17.2927C20.3324 16.2409 19.6205 15.8638 18.2077 15.372C15.3632 14.3818 12.2729 14.0895 9.55875 14.5539ZM89.9602 24.9821C89.1699 25.1044 87.589 25.5239 86.4467 25.9144C81.0087 27.7739 77.3343 31.8642 77.3414 36.0506C77.3462 38.7727 78.4903 40.8052 81.0126 42.5727C83.6397 44.4137 86.2997 45.1148 90.1654 44.9849C92.714 44.8993 94.5026 44.5354 96.81 43.6329C98.5929 42.9355 101.626 40.8001 102.746 39.4536C105.4 36.2635 105.734 32.4522 103.622 29.4619C102.6 28.0148 101.553 27.1541 99.7633 26.2916C96.9982 24.9587 93.3029 24.4652 89.9602 24.9821Z" fill="white"/>
<path fill-rule="evenodd" clip-rule="evenodd" d="M42.9303 30.5022C36.7915 31.3279 31.4518 33.185 26.6297 36.172C22.8709 38.5001 20.9132 40.5041 11.7995 51.3533C6.98586 57.0835 2.69203 62.3518 2.25744 63.0607C-0.386084 67.3737 -0.374269 72.9434 2.28754 77.2878C5.15694 81.9707 10.5095 85.315 17.2044 86.6079C19.21 86.9952 20.136 87.0502 23.2422 86.9658C26.4278 86.8792 27.2261 86.7796 29.302 86.2094C40.1455 83.231 41.2839 83.0472 48.8513 83.0538C53.5862 83.0579 54.9311 83.1339 57.3445 83.5335C60.0918 83.9883 61.2051 84.2566 67.8381 86.0619C70.5078 86.7886 71.1295 86.8747 74.3077 86.9596C79.3585 87.0943 82.8192 86.4507 86.8981 84.6183C89.1616 83.6014 92.8127 80.7641 94.2672 78.892C96.2528 76.3362 97.1327 74.0497 97.3009 71.0088C97.4649 68.0458 97.0238 65.9611 95.7386 63.6252C95.0225 62.3234 82.6909 47.3505 77.9358 42.0089C76.2236 40.0857 72.8149 37.2447 70.5104 35.8207C63.1933 31.2987 52.4335 29.2238 42.9303 30.5022Z" fill="white"/>
<path d="M53.3313 37.125C53.6621 37.125 53.9844 37.23 54.2517 37.4249C54.519 37.6198 54.7176 37.8944 54.8188 38.2094L56.5375 43.55C57.2594 43.9031 57.95 44.3 58.6094 44.7469L64.0969 43.5656C64.4204 43.4965 64.7576 43.5319 65.0597 43.6667C65.3618 43.8015 65.6134 44.0287 65.7782 44.3156L70.1094 51.8125C70.2748 52.0992 70.3448 52.4311 70.3095 52.7602C70.2741 53.0893 70.1351 53.3987 69.9125 53.6437L66.1469 57.8C66.2017 58.597 66.2017 59.3968 66.1469 60.1938L69.9125 64.3562C70.1351 64.6013 70.2741 64.9107 70.3095 65.2398C70.3448 65.5689 70.2748 65.9008 70.1094 66.1875L65.7782 73.6875C65.613 73.9738 65.3612 74.2004 65.0591 74.3346C64.757 74.4688 64.4201 74.5037 64.0969 74.4344L58.6094 73.2531C57.9532 73.6969 57.2594 74.0969 56.5407 74.45L54.8188 79.7906C54.7176 80.1056 54.519 80.3802 54.2517 80.5751C53.9844 80.77 53.6621 80.875 53.3313 80.875H44.6688C44.338 80.875 44.0157 80.77 43.7484 80.5751C43.4811 80.3802 43.2825 80.1056 43.1813 79.7906L41.4657 74.4531C40.7457 74.1011 40.0513 73.6991 39.3875 73.25L33.9032 74.4344C33.5796 74.5035 33.2425 74.4681 32.9403 74.3333C32.6382 74.1985 32.3867 73.9713 32.2219 73.6844L27.8907 66.1875C27.7253 65.9008 27.6552 65.5689 27.6906 65.2398C27.726 64.9107 27.865 64.6013 28.0875 64.3562L31.8532 60.1938C31.7986 59.3989 31.7986 58.6011 31.8532 57.8062L28.0875 53.6437C27.865 53.3987 27.726 53.0893 27.6906 52.7602C27.6552 52.4311 27.7253 52.0992 27.8907 51.8125L32.2219 44.3125C32.3871 44.0262 32.6389 43.7996 32.941 43.6654C33.2431 43.5312 33.5799 43.4963 33.9032 43.5656L39.3875 44.75C40.05 44.3031 40.7438 43.9 41.4657 43.5469L43.1844 38.2094C43.2853 37.8955 43.4829 37.6215 43.749 37.4267C44.0151 37.2319 44.3359 37.1263 44.6657 37.125H53.3282H53.3313ZM52.1875 40.25H45.8125L44.0375 45.7719L42.8407 46.3562C42.2523 46.6442 41.6843 46.972 41.1407 47.3375L40.0344 48.0875L34.3594 46.8625L31.1719 52.3875L35.0625 56.6938L34.9688 58.0187C34.9239 58.6721 34.9239 59.3279 34.9688 59.9813L35.0625 61.3062L31.1657 65.6125L34.3563 71.1375L40.0313 69.9156L41.1375 70.6625C41.6812 71.028 42.2491 71.3558 42.8375 71.6437L44.0344 72.2281L45.8125 77.75H52.1938L53.975 72.225L55.1688 71.6437C55.7565 71.3565 56.3235 71.0286 56.8657 70.6625L57.9688 69.9156L63.6469 71.1375L66.8344 65.6125L62.9407 61.3062L63.0344 59.9813C63.0794 59.3268 63.0794 58.6701 63.0344 58.0156L62.9407 56.6906L66.8375 52.3875L63.6469 46.8625L57.9688 48.0813L56.8657 47.3375C56.3236 46.9713 55.7566 46.6434 55.1688 46.3562L53.975 45.775L52.1907 40.25H52.1875ZM49 49.625C51.4864 49.625 53.871 50.6127 55.6292 52.3709C57.3873 54.129 58.375 56.5136 58.375 59C58.375 61.4864 57.3873 63.871 55.6292 65.6291C53.871 67.3873 51.4864 68.375 49 68.375C46.5136 68.375 44.1291 67.3873 42.3709 65.6291C40.6128 63.871 39.625 61.4864 39.625 59C39.625 56.5136 40.6128 54.129 42.3709 52.3709C44.1291 50.6127 46.5136 49.625 49 49.625ZM49 52.75C47.3424 52.75 45.7527 53.4085 44.5806 54.5806C43.4085 55.7527 42.75 57.3424 42.75 59C42.75 60.6576 43.4085 62.2473 44.5806 63.4194C45.7527 64.5915 47.3424 65.25 49 65.25C50.6576 65.25 52.2473 64.5915 53.4194 63.4194C54.5915 62.2473 55.25 60.6576 55.25 59C55.25 57.3424 54.5915 55.7527 53.4194 54.5806C52.2473 53.4085 50.6576 52.75 49 52.75Z" fill="#1B4F6F"/>
</svg>
