<svg width="105" height="87" viewBox="0 0 105 87" fill="none" xmlns="http://www.w3.org/2000/svg">
<path fill-rule="evenodd" clip-rule="evenodd" d="M38.234 0.208261C33.1061 1.006 28.8824 3.66466 26.8616 7.36709C25.2156 10.3824 25.1267 13.9465 26.6214 16.9846C27.5272 18.8261 28.6956 20.1263 30.7419 21.5702C32.8819 23.0804 34.2385 23.7157 36.5231 24.2775C38.5063 24.7652 41.8913 24.8924 43.9259 24.5555C49.8364 23.5769 54.3875 20.068 55.9231 15.306C56.4709 13.607 56.38 10.6934 55.7246 8.94534C53.456 2.89516 45.7398 -0.959318 38.234 0.208261ZM71.8739 5.92177C65.7938 6.60178 60.6203 10.1397 58.838 14.8364C58.2255 16.4503 58.2177 19.2879 58.8214 20.8656C60.5645 25.4203 65.5257 28.2682 71.6801 28.2471C78.1083 28.2249 83.7376 25.0288 86.1844 20.0118C86.8572 18.6324 86.8722 18.5488 86.8683 16.212C86.8648 14.0326 86.818 13.7253 86.3356 12.7125C84.7968 9.48228 81.3693 7.03765 77.1532 6.1636C75.787 5.88035 73.2735 5.76509 71.8739 5.92177ZM9.55875 14.5539C1.98148 15.85 -1.99467 22.0336 1.00258 27.86C2.71221 31.1832 6.4406 33.7813 10.934 34.7807C12.9513 35.2294 16.0962 35.2283 18.1541 34.778C21.1409 34.1248 23.8179 32.4827 25.3147 30.3858C26.5069 28.7158 26.9092 27.3048 26.7949 25.194C26.7115 23.6537 26.5988 23.1757 26.0479 22.0259C25.0971 20.0419 24.0004 18.81 21.8341 17.2927C20.3324 16.2409 19.6205 15.8638 18.2077 15.372C15.3632 14.3818 12.2729 14.0895 9.55875 14.5539ZM89.9602 24.9821C89.1699 25.1044 87.589 25.5239 86.4467 25.9144C81.0087 27.7739 77.3343 31.8642 77.3414 36.0506C77.3462 38.7727 78.4903 40.8052 81.0126 42.5727C83.6397 44.4137 86.2997 45.1148 90.1654 44.9849C92.714 44.8993 94.5026 44.5354 96.81 43.6329C98.5929 42.9355 101.626 40.8001 102.746 39.4536C105.4 36.2635 105.734 32.4522 103.622 29.4619C102.6 28.0148 101.553 27.1541 99.7633 26.2916C96.9982 24.9587 93.3029 24.4652 89.9602 24.9821Z" fill="white"/>
<path fill-rule="evenodd" clip-rule="evenodd" d="M42.9303 30.5022C36.7915 31.3279 31.4518 33.185 26.6297 36.172C22.8709 38.5001 20.9132 40.5041 11.7995 51.3533C6.98586 57.0835 2.69203 62.3518 2.25744 63.0607C-0.386084 67.3737 -0.374269 72.9434 2.28754 77.2878C5.15694 81.9707 10.5095 85.315 17.2044 86.6079C19.21 86.9952 20.136 87.0502 23.2422 86.9658C26.4278 86.8792 27.2261 86.7796 29.302 86.2094C40.1455 83.231 41.2839 83.0472 48.8513 83.0538C53.5862 83.0579 54.9311 83.1339 57.3445 83.5335C60.0918 83.9883 61.2051 84.2566 67.8381 86.0619C70.5078 86.7886 71.1295 86.8747 74.3077 86.9596C79.3585 87.0943 82.8192 86.4507 86.8981 84.6183C89.1616 83.6014 92.8127 80.7641 94.2672 78.892C96.2528 76.3362 97.1327 74.0497 97.3009 71.0088C97.4649 68.0458 97.0238 65.9611 95.7386 63.6252C95.0225 62.3234 82.6909 47.3505 77.9358 42.0089C76.2236 40.0857 72.8149 37.2447 70.5104 35.8207C63.1933 31.2987 52.4335 29.2238 42.9303 30.5022Z" fill="white"/>
<path d="M53.5008 63.8945C54.5282 62.7652 55.0958 61.2923 55.0922 59.7656C55.0922 56.3805 52.3633 53.6406 49 53.6406C45.6367 53.6406 42.9078 56.3805 42.9078 59.7656C42.9078 61.357 43.5094 62.8008 44.4992 63.8945C43.3132 64.6295 42.3227 65.6406 41.6123 66.8414C40.9018 68.0423 40.4926 69.3973 40.4195 70.7906C40.4166 70.8499 40.4257 70.9091 40.4463 70.9648C40.467 71.0204 40.4987 71.0713 40.5397 71.1142C40.5806 71.1572 40.6298 71.1914 40.6844 71.2147C40.739 71.2381 40.7977 71.2501 40.857 71.25H43.2578C43.4875 71.25 43.6734 71.0695 43.6898 70.8398C43.8977 68.0727 46.2055 65.8906 49.0055 65.8906C51.8055 65.8906 54.1133 68.0781 54.3211 70.8398C54.3375 71.0695 54.5234 71.25 54.7531 71.25H57.1484C57.2078 71.2501 57.2665 71.2381 57.3211 71.2147C57.3756 71.1914 57.4249 71.1572 57.4658 71.1142C57.5067 71.0713 57.5385 71.0204 57.5591 70.9648C57.5798 70.9091 57.5889 70.8499 57.5859 70.7906C57.4328 67.8758 55.8359 65.3383 53.5008 63.8945ZM49 62.6094C47.4414 62.6094 46.1727 61.3352 46.1727 59.7656C46.1727 58.1961 47.4414 56.9219 49 56.9219C50.5586 56.9219 51.8273 58.1961 51.8273 59.7656C51.8273 61.3352 50.5586 62.6094 49 62.6094ZM71.75 43.25H63V40.1875C63 39.9469 62.8031 39.75 62.5625 39.75H59.5C59.2594 39.75 59.0625 39.9469 59.0625 40.1875V43.25H50.9688V40.1875C50.9688 39.9469 50.7719 39.75 50.5312 39.75H47.4688C47.2281 39.75 47.0312 39.9469 47.0312 40.1875V43.25H38.9375V40.1875C38.9375 39.9469 38.7406 39.75 38.5 39.75H35.4375C35.1969 39.75 35 39.9469 35 40.1875V43.25H26.25C25.282 43.25 24.5 44.032 24.5 45V76.5C24.5 77.468 25.282 78.25 26.25 78.25H71.75C72.718 78.25 73.5 77.468 73.5 76.5V45C73.5 44.032 72.718 43.25 71.75 43.25ZM69.5625 74.3125H28.4375V47.1875H35V50.25C35 50.4906 35.1969 50.6875 35.4375 50.6875H38.5C38.7406 50.6875 38.9375 50.4906 38.9375 50.25V47.1875H47.0312V50.25C47.0312 50.4906 47.2281 50.6875 47.4688 50.6875H50.5312C50.7719 50.6875 50.9688 50.4906 50.9688 50.25V47.1875H59.0625V50.25C59.0625 50.4906 59.2594 50.6875 59.5 50.6875H62.5625C62.8031 50.6875 63 50.4906 63 50.25V47.1875H69.5625V74.3125Z" fill="#1B4F6F"/>
</svg>
