<svg width="50" height="50" viewBox="0 0 50 50" fill="none" xmlns="http://www.w3.org/2000/svg">
<path d="M11.8624 25L4.78948 6.8125C4.29781 5.54792 5.53114 4.3375 6.75198 4.76875L6.94573 4.85L44.4457 23.6C44.6876 23.7208 44.8939 23.9022 45.0446 24.1266C45.1954 24.351 45.2853 24.6106 45.3057 24.8802C45.326 25.1497 45.2761 25.4199 45.1608 25.6644C45.0455 25.9089 44.8687 26.1193 44.6478 26.275L44.4457 26.3958L6.94573 45.1458C5.73114 45.7521 4.41031 44.6354 4.72698 43.3792L4.78948 43.1813L11.8624 25L4.78948 6.8125L11.8624 25ZM9.17073 9.45833L14.6082 23.4375H28.4145C28.7921 23.4375 29.1569 23.5743 29.4414 23.8224C29.726 24.0706 29.911 24.4134 29.9624 24.7875L29.977 25C29.9769 25.3779 29.8399 25.7429 29.5913 26.0276C29.3427 26.3122 28.9993 26.497 28.6249 26.5479L28.4145 26.5625H14.6041L9.16864 40.5417L40.2541 25L9.16864 9.45833H9.17073Z" fill="#1B4F6F"/>
</svg>
